<svg width="221" height="65" viewBox="0 0 221 65" fill="none" xmlns="http://www.w3.org/2000/svg">
<path d="M47.7702 59.9899C52.2917 53.7592 54.958 46.0938 54.958 37.8068C54.958 33.2737 54.16 28.9264 52.6972 24.8984C48.8668 14.3524 40.4791 5.99598 29.9134 2.20835C25.9271 0.777431 21.6328 0 17.1564 0C17.0006 0 16.8428 0 16.687 0.00187785C16.6851 0.00187785 16.6832 0 16.6795 0H0V2.20648C1.28621 2.20648 2.55741 2.28159 3.80607 2.42431C4.55151 2.51069 5.29132 2.6196 6.01986 2.75669C8.37072 3.18859 10.6352 3.87025 12.7814 4.77538V59.9899H6.64137V65H53.3845C56.1503 65 58.3941 62.7578 58.3941 59.9899H47.7683H47.7702ZM22.9491 58.9214C22.5735 59.2876 22.1886 59.6425 21.7962 59.988H17.1564V7.01378C26.6594 12.807 33.0022 23.2666 33.0022 35.2097C33.0022 44.5201 29.1492 52.9273 22.951 58.9233L22.9491 58.9214ZM27.6959 57.8041C34.1363 51.3687 38.1208 42.4752 38.1208 32.6502C38.1208 19.7419 31.2428 8.43907 20.9531 2.20835C20.6959 2.05249 20.4367 1.90039 20.1776 1.75204C21.1578 1.86471 22.1304 2.01869 23.088 2.20835C30.6382 3.69374 37.381 7.42691 42.5897 12.683C52.0739 22.2507 52.6353 37.5251 43.643 47.5585C39.4032 52.2888 33.9148 55.8774 27.6959 57.8041Z" fill="black"/>
<path d="M86.5527 14.484C88.1996 14.484 89.5931 14.674 90.7333 15.0541C91.8946 15.4131 92.8236 16.0255 93.5204 16.8912C94.2383 17.7359 94.7556 18.8867 95.0723 20.3437C95.389 21.7796 95.5473 23.5639 95.5473 25.6966C95.5473 27.8294 95.389 29.6243 95.0723 31.0813C94.7556 32.5172 94.2383 33.668 93.5204 34.5338C92.8236 35.3784 91.8946 35.9908 90.7333 36.3709C89.5931 36.7298 88.1996 36.9093 86.5527 36.9093C84.9691 36.9093 83.5016 36.8776 82.1503 36.8143C80.799 36.7721 79.5216 36.7087 78.3181 36.6243L79.965 33.5835C80.8096 33.6258 81.7808 33.668 82.8788 33.7102C83.9767 33.7313 85.2013 33.7419 86.5527 33.7419C87.7773 33.7419 88.738 33.5096 89.4348 33.0451C90.1526 32.5594 90.6594 31.7359 90.955 30.5745C91.2506 29.392 91.3984 27.766 91.3984 25.6966C91.3984 23.6273 91.2506 22.0119 90.955 20.8505C90.6594 19.668 90.1526 18.8339 89.4348 18.3482C88.738 17.8626 87.7773 17.6197 86.5527 17.6197C85.2436 17.6197 84.0717 17.6303 83.0371 17.6514C82.0236 17.6725 81.0313 17.6831 80.06 17.6831L78.3181 14.769C79.5216 14.6846 80.7885 14.6212 82.1187 14.579C83.47 14.5156 84.948 14.484 86.5527 14.484ZM82.277 14.769V36.6243H78.3181V14.769H82.277Z" fill="black"/>
<path d="M109.164 14.769C109.501 14.769 109.797 14.8641 110.05 15.0541C110.304 15.2442 110.483 15.4976 110.589 15.8143L117.208 36.6243H113.154L108.15 19.7736C108.066 19.4357 107.981 19.0979 107.897 18.76C107.812 18.4221 107.738 18.0948 107.675 17.7781H106.788C106.725 18.0948 106.651 18.4221 106.567 18.76C106.482 19.0979 106.387 19.4357 106.281 19.7736L101.309 36.6243H97.2551L103.874 15.8143C103.959 15.4976 104.128 15.2442 104.381 15.0541C104.656 14.8641 104.962 14.769 105.3 14.769H109.164ZM112.837 27.2804V30.3844H101.594V27.2804H112.837Z" fill="black"/>
<path d="M136.105 14.769L130.119 23.6695C129.908 24.0074 129.686 24.303 129.454 24.5564C129.222 24.7887 128.968 25.0104 128.694 25.2215V25.3166C128.989 25.5277 129.285 25.7811 129.58 26.0767C129.876 26.3724 130.119 26.6891 130.309 27.027L136.517 36.6243H132.083L124.893 25.1899L131.797 14.769H136.105ZM123.753 14.769V21.2306C123.753 21.9063 123.7 22.5715 123.595 23.2261C123.51 23.8807 123.373 24.5353 123.183 25.1899C123.331 25.8022 123.457 26.4357 123.563 27.0903C123.69 27.7238 123.753 28.3362 123.753 28.9274V36.6243H119.794V14.769H123.753ZM126.54 23.7962V26.6786H122.486V23.7962H126.54Z" fill="black"/>
<path d="M143.269 14.769V36.6243H139.31V14.769H143.269ZM152.391 23.4161V26.5202H143.016V23.4161H152.391ZM156.001 14.769V36.6243H152.042V14.769H156.001Z" fill="black"/>
<path d="M165.175 14.7057C166.273 14.7057 167.392 14.7057 168.532 14.7057C169.694 14.7057 170.834 14.7268 171.953 14.769C173.072 14.8113 174.128 14.8746 175.12 14.9591L174.93 17.9048H166.379C165.787 17.9048 165.344 18.0526 165.048 18.3482C164.774 18.6439 164.637 19.1084 164.637 19.7419V31.6514C164.637 32.2849 164.774 32.7494 165.048 33.0451C165.344 33.3407 165.787 33.4885 166.379 33.4885H174.93L175.12 36.4342C174.128 36.5187 173.072 36.582 171.953 36.6243C170.834 36.6454 169.694 36.6559 168.532 36.6559C167.392 36.677 166.273 36.6876 165.175 36.6876C163.824 36.6876 162.736 36.3181 161.913 35.579C161.111 34.8188 160.699 33.8053 160.678 32.5383V18.855C160.699 17.588 161.111 16.585 161.913 15.846C162.736 15.0858 163.824 14.7057 165.175 14.7057ZM161.248 23.7328H173.726V26.6469H161.248V23.7328Z" fill="black"/>
<path d="M183.238 14.7057C184.336 14.7057 185.455 14.7057 186.595 14.7057C187.756 14.7057 188.896 14.7268 190.015 14.769C191.135 14.8113 192.19 14.8746 193.183 14.9591L192.993 17.9048H184.441C183.85 17.9048 183.407 18.0526 183.111 18.3482C182.837 18.6439 182.699 19.1084 182.699 19.7419V31.6514C182.699 32.2849 182.837 32.7494 183.111 33.0451C183.407 33.3407 183.85 33.4885 184.441 33.4885H192.993L193.183 36.4342C192.19 36.5187 191.135 36.582 190.015 36.6243C188.896 36.6454 187.756 36.6559 186.595 36.6559C185.455 36.677 184.336 36.6876 183.238 36.6876C181.886 36.6876 180.799 36.3181 179.976 35.579C179.173 34.8188 178.762 33.8053 178.74 32.5383V18.855C178.762 17.588 179.173 16.585 179.976 15.846C180.799 15.0858 181.886 14.7057 183.238 14.7057ZM179.311 23.7328H191.789V26.6469H179.311V23.7328Z" fill="black"/>
<path d="M218.625 14.769C219.617 14.769 220.124 15.2758 220.145 16.2894L221 36.6243H217.231L216.471 17.9048H215.869L211.784 32.57C211.594 33.4357 211.055 33.8686 210.168 33.8686H207.381C206.473 33.8686 205.914 33.4357 205.703 32.57L201.617 17.9048H201.015L200.319 36.6243H196.55L197.405 16.2894C197.447 15.2758 197.954 14.769 198.925 14.769H202.884C203.729 14.769 204.256 15.2019 204.468 16.0677L207.825 28.0405C207.972 28.5473 208.089 29.0541 208.173 29.5609C208.279 30.0677 208.395 30.5745 208.521 31.0813H208.997C209.123 30.5745 209.239 30.0677 209.345 29.5609C209.45 29.0541 209.567 28.5368 209.693 28.0089L213.05 16.0677C213.241 15.2019 213.779 14.769 214.666 14.769H218.625Z" fill="black"/>
<path d="M80.1682 48.1853C80.8456 48.1853 81.3911 48.2645 81.8046 48.4229C82.2181 48.5725 82.5172 48.8364 82.7019 49.2148C82.8955 49.5843 82.9923 50.1122 82.9923 50.7985C82.9923 51.3088 82.9351 51.7311 82.8207 52.0654C82.7063 52.391 82.526 52.6417 82.2797 52.8177C82.0333 52.9937 81.7122 53.1124 81.3163 53.174V53.2268C81.4659 53.2708 81.611 53.35 81.7518 53.4644C81.8926 53.5788 82.0201 53.7239 82.1345 53.8999C82.2489 54.0759 82.3368 54.2826 82.3984 54.5202L83.3222 57.4105H82.3984L81.5275 54.5466C81.4043 54.1683 81.2327 53.8999 81.0128 53.7415C80.8017 53.5832 80.5333 53.504 80.2078 53.504C79.6888 53.504 79.2269 53.504 78.8222 53.504C78.4263 53.4952 78.0964 53.4864 77.8325 53.4776C77.5685 53.4688 77.3706 53.46 77.2386 53.4512L77.2782 52.7517H80.1418C80.6345 52.7429 81.0216 52.6857 81.3031 52.5801C81.5934 52.4658 81.8002 52.2722 81.9234 51.9994C82.0465 51.7179 82.1081 51.3308 82.1081 50.8381C82.1081 50.3366 82.0465 49.9494 81.9234 49.6767C81.8002 49.4039 81.5934 49.2148 81.3031 49.1092C81.0216 49.0036 80.6345 48.9508 80.1418 48.9508C79.438 48.9508 78.831 48.9552 78.3207 48.964C77.8105 48.964 77.4674 48.9684 77.2914 48.9772L77.1067 48.3041C77.4322 48.2689 77.7357 48.2425 78.0172 48.2249C78.2987 48.2073 78.6067 48.1985 78.941 48.1985C79.2841 48.1897 79.6932 48.1853 80.1682 48.1853ZM77.9644 48.3041V57.4105H77.1067V48.3041H77.9644Z" fill="black"/>
<path d="M86.7434 48.2909C87.1745 48.2909 87.61 48.2909 88.0499 48.2909C88.4898 48.2909 88.9253 48.2997 89.3563 48.3173C89.7962 48.3261 90.2229 48.3437 90.6364 48.3701L90.5968 49.0432H86.8886C86.5983 49.0432 86.374 49.1224 86.2156 49.2807C86.066 49.4391 85.9913 49.6723 85.9913 49.9802V55.7344C85.9913 56.0423 86.066 56.2799 86.2156 56.447C86.374 56.6054 86.5983 56.6846 86.8886 56.6846H90.5968L90.6364 57.3445C90.2229 57.3709 89.7962 57.3885 89.3563 57.3973C88.9253 57.4061 88.4898 57.4105 88.0499 57.4105C87.61 57.4193 87.1745 57.4237 86.7434 57.4237C86.2596 57.4237 85.8681 57.2873 85.569 57.0145C85.2786 56.733 85.1335 56.3679 85.1335 55.9191V49.7955C85.1335 49.3379 85.2786 48.9728 85.569 48.7001C85.8681 48.4273 86.2596 48.2909 86.7434 48.2909ZM85.3578 52.2238H90.0689V52.9233H85.3578V52.2238Z" fill="black"/>
<path d="M95.8838 48.3041C95.963 48.3041 96.0334 48.3261 96.095 48.3701C96.1654 48.4141 96.2093 48.4757 96.2269 48.5549L99.2753 57.4105H98.378L95.8178 49.7295C95.7827 49.6063 95.7431 49.4831 95.6991 49.3599C95.6551 49.228 95.6155 49.1048 95.5803 48.9904H95.1976C95.1624 49.1048 95.1228 49.228 95.0788 49.3599C95.0436 49.4831 95.0041 49.6063 94.9601 49.7295L92.4 57.4105H91.5026L94.551 48.5549C94.5774 48.4757 94.6214 48.4141 94.683 48.3701C94.7445 48.3261 94.8149 48.3041 94.8941 48.3041H95.8838ZM97.6917 53.636V54.3882H93.073V53.636H97.6917Z" fill="black"/>
<path d="M101.495 48.3041V55.7344C101.495 56.0335 101.579 56.2667 101.746 56.4338C101.913 56.5922 102.151 56.6714 102.459 56.6714H105.85L105.877 57.3445C105.296 57.3797 104.707 57.4017 104.108 57.4105C103.51 57.4193 102.912 57.4237 102.314 57.4237C101.742 57.4237 101.319 57.2741 101.047 56.9749C100.774 56.667 100.638 56.2887 100.638 55.8399V48.3041H101.495Z" fill="black"/>
<path d="M111.616 48.2909C112.047 48.2909 112.482 48.2909 112.922 48.2909C113.362 48.2909 113.797 48.2997 114.228 48.3173C114.668 48.3261 115.095 48.3437 115.509 48.3701L115.469 49.0432H111.761C111.47 49.0432 111.246 49.1224 111.088 49.2807C110.938 49.4391 110.863 49.6723 110.863 49.9802V55.7344C110.863 56.0423 110.938 56.2799 111.088 56.447C111.246 56.6054 111.47 56.6846 111.761 56.6846H115.469L115.509 57.3445C115.095 57.3709 114.668 57.3885 114.228 57.3973C113.797 57.4061 113.362 57.4105 112.922 57.4105C112.482 57.4193 112.047 57.4237 111.616 57.4237C111.132 57.4237 110.74 57.2873 110.441 57.0145C110.151 56.733 110.006 56.3679 110.006 55.9191V49.7955C110.006 49.3379 110.151 48.9728 110.441 48.7001C110.74 48.4273 111.132 48.2909 111.616 48.2909ZM110.23 52.2238H114.941V52.9233H110.23V52.2238Z" fill="black"/>
<path d="M119.859 48.1458C120.29 48.1546 120.725 48.1765 121.165 48.2117C121.605 48.2469 122.045 48.3041 122.485 48.3833L122.419 49.0168C122.032 48.9904 121.618 48.9684 121.178 48.9508C120.738 48.9332 120.312 48.9244 119.898 48.9244C119.538 48.9244 119.225 48.9376 118.961 48.964C118.706 48.9904 118.495 49.052 118.328 49.1488C118.161 49.2456 118.038 49.4039 117.958 49.6239C117.888 49.8438 117.853 50.1518 117.853 50.5477C117.853 51.1108 117.95 51.5111 118.143 51.7487C118.337 51.9775 118.658 52.1358 119.106 52.2238L121.02 52.6197C121.706 52.7605 122.181 53.0289 122.445 53.4248C122.718 53.8207 122.854 54.3838 122.854 55.1141C122.854 55.6508 122.793 56.0819 122.669 56.4074C122.546 56.7242 122.362 56.9661 122.115 57.1333C121.878 57.3005 121.574 57.4149 121.205 57.4765C120.835 57.538 120.4 57.5688 119.898 57.5688C119.582 57.5688 119.19 57.5556 118.724 57.5292C118.257 57.5028 117.725 57.4413 117.127 57.3445L117.193 56.711C117.642 56.7286 118.016 56.7462 118.315 56.7638C118.623 56.7726 118.9 56.7814 119.146 56.7902C119.392 56.7902 119.652 56.7902 119.925 56.7902C120.435 56.7814 120.84 56.7374 121.139 56.6582C121.438 56.579 121.649 56.4206 121.772 56.1831C121.904 55.9455 121.97 55.5848 121.97 55.1009C121.97 54.705 121.926 54.397 121.838 54.1771C121.759 53.9483 121.623 53.7767 121.429 53.6623C121.244 53.5392 121.002 53.4512 120.703 53.3984L118.763 52.9893C118.112 52.8573 117.65 52.5933 117.378 52.1974C117.114 51.7927 116.982 51.2384 116.982 50.5345C116.982 49.9978 117.039 49.5711 117.153 49.2544C117.277 48.9288 117.452 48.6869 117.681 48.5285C117.919 48.3701 118.218 48.2689 118.579 48.2249C118.939 48.1721 119.366 48.1458 119.859 48.1458Z" fill="black"/>
<path d="M127.798 48.3041V57.4105H126.927V48.3041H127.798ZM130.833 48.3041V49.0696H123.905V48.3041H130.833Z" fill="black"/>
<path d="M134.919 48.3041C134.998 48.3041 135.068 48.3261 135.13 48.3701C135.2 48.4141 135.244 48.4757 135.262 48.5549L138.31 57.4105H137.413L134.853 49.7295C134.818 49.6063 134.778 49.4831 134.734 49.3599C134.69 49.228 134.651 49.1048 134.615 48.9904H134.233C134.198 49.1048 134.158 49.228 134.114 49.3599C134.079 49.4831 134.039 49.6063 133.995 49.7295L131.435 57.4105H130.538L133.586 48.5549C133.612 48.4757 133.656 48.4141 133.718 48.3701C133.78 48.3261 133.85 48.3041 133.929 48.3041H134.919ZM136.727 53.636V54.3882H132.108V53.636H136.727Z" fill="black"/>
<path d="M141.909 48.3041V57.4105H141.038V48.3041H141.909ZM144.944 48.3041V49.0696H138.016V48.3041H144.944Z" fill="black"/>
<path d="M148.035 48.2909C148.466 48.2909 148.901 48.2909 149.341 48.2909C149.781 48.2909 150.216 48.2997 150.648 48.3173C151.087 48.3261 151.514 48.3437 151.928 48.3701L151.888 49.0432H148.18C147.889 49.0432 147.665 49.1224 147.507 49.2807C147.357 49.4391 147.282 49.6723 147.282 49.9802V55.7344C147.282 56.0423 147.357 56.2799 147.507 56.447C147.665 56.6054 147.889 56.6846 148.18 56.6846H151.888L151.928 57.3445C151.514 57.3709 151.087 57.3885 150.648 57.3973C150.216 57.4061 149.781 57.4105 149.341 57.4105C148.901 57.4193 148.466 57.4237 148.035 57.4237C147.551 57.4237 147.159 57.2873 146.86 57.0145C146.57 56.733 146.425 56.3679 146.425 55.9191V49.7955C146.425 49.3379 146.57 48.9728 146.86 48.7001C147.159 48.4273 147.551 48.2909 148.035 48.2909ZM146.649 52.2238H151.36V52.9233H146.649V52.2238Z" fill="black"/>
</svg>
